<mxfile host="app.diagrams.net" agent="Mozilla/5.0 (Windows NT 10.0; Win64; x64) AppleWebKit/537.36 (KHTML, like Gecko) Chrome/133.0.0.0 Safari/537.36 Edg/133.0.0.0" version="26.0.16">
  <diagram name="Page-1" id="edf60f1a-56cd-e834-aa8a-f176f3a09ee4">
    <mxGraphModel dx="2066" dy="755" grid="1" gridSize="10" guides="1" tooltips="1" connect="1" arrows="1" fold="1" page="1" pageScale="1" pageWidth="1100" pageHeight="850" background="none" math="0" shadow="0">
      <root>
        <mxCell id="0" />
        <mxCell id="1" parent="0" />
        <mxCell id="qw9EZCMydE7B6fMpdmAE-6" value="" style="edgeStyle=orthogonalEdgeStyle;rounded=0;orthogonalLoop=1;jettySize=auto;html=1;" edge="1" parent="1" source="qw9EZCMydE7B6fMpdmAE-1" target="qw9EZCMydE7B6fMpdmAE-4">
          <mxGeometry relative="1" as="geometry" />
        </mxCell>
        <mxCell id="qw9EZCMydE7B6fMpdmAE-1" value="Início" style="strokeWidth=2;html=1;shape=mxgraph.flowchart.terminator;whiteSpace=wrap;" vertex="1" parent="1">
          <mxGeometry x="200" y="60" width="100" height="60" as="geometry" />
        </mxCell>
        <mxCell id="qw9EZCMydE7B6fMpdmAE-8" value="" style="edgeStyle=orthogonalEdgeStyle;rounded=0;orthogonalLoop=1;jettySize=auto;html=1;" edge="1" parent="1" source="qw9EZCMydE7B6fMpdmAE-4" target="qw9EZCMydE7B6fMpdmAE-7">
          <mxGeometry relative="1" as="geometry" />
        </mxCell>
        <mxCell id="qw9EZCMydE7B6fMpdmAE-4" value="N1, N2" style="shape=manualInput;whiteSpace=wrap;html=1;size=27;" vertex="1" parent="1">
          <mxGeometry x="210" y="170" width="80" height="70" as="geometry" />
        </mxCell>
        <mxCell id="qw9EZCMydE7B6fMpdmAE-10" value="" style="edgeStyle=orthogonalEdgeStyle;rounded=0;orthogonalLoop=1;jettySize=auto;html=1;" edge="1" parent="1" source="qw9EZCMydE7B6fMpdmAE-7" target="qw9EZCMydE7B6fMpdmAE-9">
          <mxGeometry relative="1" as="geometry" />
        </mxCell>
        <mxCell id="qw9EZCMydE7B6fMpdmAE-7" value="Média &amp;lt;- (N1 + N2) / 2" style="whiteSpace=wrap;html=1;" vertex="1" parent="1">
          <mxGeometry x="170" y="325" width="160" height="60" as="geometry" />
        </mxCell>
        <mxCell id="qw9EZCMydE7B6fMpdmAE-13" value="" style="edgeStyle=orthogonalEdgeStyle;rounded=0;orthogonalLoop=1;jettySize=auto;html=1;" edge="1" parent="1" source="qw9EZCMydE7B6fMpdmAE-9" target="qw9EZCMydE7B6fMpdmAE-12">
          <mxGeometry relative="1" as="geometry" />
        </mxCell>
        <mxCell id="qw9EZCMydE7B6fMpdmAE-15" value="" style="edgeStyle=orthogonalEdgeStyle;rounded=0;orthogonalLoop=1;jettySize=auto;html=1;" edge="1" parent="1" source="qw9EZCMydE7B6fMpdmAE-9" target="qw9EZCMydE7B6fMpdmAE-14">
          <mxGeometry relative="1" as="geometry" />
        </mxCell>
        <mxCell id="qw9EZCMydE7B6fMpdmAE-9" value="Média &amp;gt;= 6,0" style="rhombus;whiteSpace=wrap;html=1;" vertex="1" parent="1">
          <mxGeometry x="190" y="455" width="120" height="80" as="geometry" />
        </mxCell>
        <mxCell id="qw9EZCMydE7B6fMpdmAE-18" value="" style="edgeStyle=orthogonalEdgeStyle;rounded=0;orthogonalLoop=1;jettySize=auto;html=1;" edge="1" parent="1" source="qw9EZCMydE7B6fMpdmAE-12" target="qw9EZCMydE7B6fMpdmAE-16">
          <mxGeometry relative="1" as="geometry" />
        </mxCell>
        <mxCell id="qw9EZCMydE7B6fMpdmAE-12" value="&quot;Reprovado&quot;" style="shape=document;whiteSpace=wrap;html=1;boundedLbl=1;" vertex="1" parent="1">
          <mxGeometry x="190" y="615" width="120" height="80" as="geometry" />
        </mxCell>
        <mxCell id="qw9EZCMydE7B6fMpdmAE-17" value="" style="edgeStyle=orthogonalEdgeStyle;rounded=0;orthogonalLoop=1;jettySize=auto;html=1;" edge="1" parent="1" source="qw9EZCMydE7B6fMpdmAE-14" target="qw9EZCMydE7B6fMpdmAE-16">
          <mxGeometry relative="1" as="geometry" />
        </mxCell>
        <mxCell id="qw9EZCMydE7B6fMpdmAE-14" value="&quot;Aprovado&quot;" style="shape=document;whiteSpace=wrap;html=1;boundedLbl=1;" vertex="1" parent="1">
          <mxGeometry x="390" y="455" width="120" height="80" as="geometry" />
        </mxCell>
        <mxCell id="qw9EZCMydE7B6fMpdmAE-16" value="FIM" style="rounded=1;whiteSpace=wrap;html=1;arcSize=50;" vertex="1" parent="1">
          <mxGeometry x="390" y="625" width="120" height="60" as="geometry" />
        </mxCell>
        <mxCell id="qw9EZCMydE7B6fMpdmAE-20" value="sim" style="text;strokeColor=none;fillColor=none;align=center;verticalAlign=top;spacingLeft=4;spacingRight=4;overflow=hidden;rotatable=0;points=[[0,0.5],[1,0.5]];portConstraint=eastwest;whiteSpace=wrap;html=1;" vertex="1" parent="1">
          <mxGeometry x="330" y="470" width="40" height="26" as="geometry" />
        </mxCell>
        <mxCell id="qw9EZCMydE7B6fMpdmAE-21" value="não" style="text;strokeColor=none;fillColor=none;align=center;verticalAlign=top;spacingLeft=4;spacingRight=4;overflow=hidden;rotatable=0;points=[[0,0.5],[1,0.5]];portConstraint=eastwest;whiteSpace=wrap;html=1;" vertex="1" parent="1">
          <mxGeometry x="250" y="550" width="40" height="26" as="geometry" />
        </mxCell>
      </root>
    </mxGraphModel>
  </diagram>
</mxfile>
